<svg width="343" height="343" viewBox="0 0 343 343" fill="none" xmlns="http://www.w3.org/2000/svg">
    <path
        d="M80.3906 53.5938C73.2993 53.6443 66.5127 56.4837 61.4982 61.4982C56.4837 66.5127 53.6443 73.2993 53.5938 80.3906V262.609C53.5938 277.262 65.7381 289.406 80.3906 289.406H262.609C277.262 289.406 289.406 277.262 289.406 262.609V80.3906C289.406 65.7381 277.262 53.5938 262.609 53.5938H80.3906ZM80.3906 75.0312H262.609C265.664 75.0312 267.969 77.3358 267.969 80.3906V262.609C267.983 263.317 267.855 264.021 267.591 264.677C267.326 265.334 266.932 265.931 266.432 266.432C265.931 266.932 265.334 267.326 264.677 267.591C264.021 267.855 263.317 267.983 262.609 267.969H80.3906C79.6824 267.985 78.9783 267.857 78.3208 267.594C77.6632 267.33 77.066 266.936 76.5651 266.435C76.0642 265.934 75.67 265.337 75.4064 264.679C75.1427 264.022 75.0151 263.318 75.0312 262.609V80.3906C75.0312 77.3358 77.3358 75.0312 80.3906 75.0312ZM111.882 93.4568C109.426 93.3975 106.983 93.8302 104.696 94.7292C102.409 95.6283 100.325 96.9756 98.5672 98.692C96.8089 100.408 95.4117 102.459 94.4578 104.723C93.5038 106.988 93.0124 109.42 93.0124 111.877C93.0124 114.334 93.5038 116.766 94.4578 119.031C95.4117 121.295 96.8089 123.346 98.5672 125.062C100.325 126.778 102.409 128.126 104.696 129.025C106.983 129.924 109.426 130.356 111.882 130.297C116.691 130.181 121.263 128.19 124.623 124.748C127.983 121.306 129.863 116.687 129.863 111.877C129.863 107.067 127.983 102.448 124.623 99.0062C121.263 95.5644 116.691 93.5728 111.882 93.4568ZM208.673 142.356C193.313 142.356 183.098 150.77 178.874 158.766H178.199V144.703H148.047V246.531H179.539V196.282C179.539 183.012 182.176 170.16 198.629 170.16C214.836 170.16 215.05 185.145 215.05 196.957V246.531H246.531V190.59C246.531 163.214 240.7 142.356 208.673 142.356ZM96.4688 144.703V246.531H128.293V144.703H96.4688Z"
        fill="white" />
</svg>